<mxfile host="app.diagrams.net" modified="2021-09-11T13:19:24.993Z" agent="5.0 (Windows NT 10.0; Win64; x64) AppleWebKit/537.36 (KHTML, like Gecko) Chrome/93.0.4577.63 Safari/537.36 Edg/93.0.961.38" etag="p9Do7yxzrYCjXMI-ziuW" version="14.7.6" type="github">
  <diagram id="6hvotXmZqnvBUA3JyZWm" name="Page-1">
    <mxGraphModel dx="1108" dy="450" grid="1" gridSize="10" guides="1" tooltips="1" connect="1" arrows="1" fold="1" page="1" pageScale="1" pageWidth="850" pageHeight="1100" math="0" shadow="0">
      <root>
        <mxCell id="0" />
        <mxCell id="1" parent="0" />
        <mxCell id="tFFFFdtpIs620GTfecQ9-5" value="" style="group" vertex="1" connectable="0" parent="1">
          <mxGeometry x="280" y="40" width="200" height="80" as="geometry" />
        </mxCell>
        <mxCell id="tFFFFdtpIs620GTfecQ9-1" value="Account Service" style="rounded=1;whiteSpace=wrap;html=1;verticalAlign=top;" vertex="1" parent="tFFFFdtpIs620GTfecQ9-5">
          <mxGeometry width="200" height="80" as="geometry" />
        </mxCell>
        <mxCell id="tFFFFdtpIs620GTfecQ9-2" value="" style="shape=hexagon;perimeter=hexagonPerimeter2;whiteSpace=wrap;html=1;fixedSize=1;size=20;" vertex="1" parent="tFFFFdtpIs620GTfecQ9-5">
          <mxGeometry x="10" y="30" width="70" height="40" as="geometry" />
        </mxCell>
        <mxCell id="tFFFFdtpIs620GTfecQ9-3" value="" style="shape=cylinder3;whiteSpace=wrap;html=1;boundedLbl=1;backgroundOutline=1;size=15;" vertex="1" parent="tFFFFdtpIs620GTfecQ9-5">
          <mxGeometry x="90" y="20" width="40" height="50" as="geometry" />
        </mxCell>
        <mxCell id="tFFFFdtpIs620GTfecQ9-6" value="" style="group" vertex="1" connectable="0" parent="1">
          <mxGeometry x="280" y="160" width="200" height="80" as="geometry" />
        </mxCell>
        <mxCell id="tFFFFdtpIs620GTfecQ9-7" value="Product Service" style="rounded=1;whiteSpace=wrap;html=1;verticalAlign=top;" vertex="1" parent="tFFFFdtpIs620GTfecQ9-6">
          <mxGeometry width="200" height="80" as="geometry" />
        </mxCell>
        <mxCell id="tFFFFdtpIs620GTfecQ9-8" value="" style="shape=hexagon;perimeter=hexagonPerimeter2;whiteSpace=wrap;html=1;fixedSize=1;size=20;" vertex="1" parent="tFFFFdtpIs620GTfecQ9-6">
          <mxGeometry x="10" y="30" width="70" height="40" as="geometry" />
        </mxCell>
        <mxCell id="tFFFFdtpIs620GTfecQ9-9" value="" style="shape=cylinder3;whiteSpace=wrap;html=1;boundedLbl=1;backgroundOutline=1;size=15;" vertex="1" parent="tFFFFdtpIs620GTfecQ9-6">
          <mxGeometry x="90" y="20" width="40" height="50" as="geometry" />
        </mxCell>
        <mxCell id="tFFFFdtpIs620GTfecQ9-10" value="" style="group" vertex="1" connectable="0" parent="1">
          <mxGeometry x="280" y="280" width="200" height="80" as="geometry" />
        </mxCell>
        <mxCell id="tFFFFdtpIs620GTfecQ9-11" value="Cart and Checkout Service" style="rounded=1;whiteSpace=wrap;html=1;verticalAlign=top;" vertex="1" parent="tFFFFdtpIs620GTfecQ9-10">
          <mxGeometry width="200" height="80" as="geometry" />
        </mxCell>
        <mxCell id="tFFFFdtpIs620GTfecQ9-12" value="" style="shape=hexagon;perimeter=hexagonPerimeter2;whiteSpace=wrap;html=1;fixedSize=1;size=20;" vertex="1" parent="tFFFFdtpIs620GTfecQ9-10">
          <mxGeometry x="10" y="30" width="70" height="40" as="geometry" />
        </mxCell>
        <mxCell id="tFFFFdtpIs620GTfecQ9-13" value="" style="shape=cylinder3;whiteSpace=wrap;html=1;boundedLbl=1;backgroundOutline=1;size=15;" vertex="1" parent="tFFFFdtpIs620GTfecQ9-10">
          <mxGeometry x="90" y="20" width="40" height="50" as="geometry" />
        </mxCell>
        <mxCell id="tFFFFdtpIs620GTfecQ9-14" value="" style="group" vertex="1" connectable="0" parent="1">
          <mxGeometry x="280" y="400" width="200" height="80" as="geometry" />
        </mxCell>
        <mxCell id="tFFFFdtpIs620GTfecQ9-15" value="Order Service" style="rounded=1;whiteSpace=wrap;html=1;verticalAlign=top;" vertex="1" parent="tFFFFdtpIs620GTfecQ9-14">
          <mxGeometry width="200" height="80" as="geometry" />
        </mxCell>
        <mxCell id="tFFFFdtpIs620GTfecQ9-16" value="" style="shape=hexagon;perimeter=hexagonPerimeter2;whiteSpace=wrap;html=1;fixedSize=1;size=20;" vertex="1" parent="tFFFFdtpIs620GTfecQ9-14">
          <mxGeometry x="10" y="30" width="70" height="40" as="geometry" />
        </mxCell>
        <mxCell id="tFFFFdtpIs620GTfecQ9-17" value="" style="shape=cylinder3;whiteSpace=wrap;html=1;boundedLbl=1;backgroundOutline=1;size=15;" vertex="1" parent="tFFFFdtpIs620GTfecQ9-14">
          <mxGeometry x="90" y="20" width="40" height="50" as="geometry" />
        </mxCell>
        <mxCell id="tFFFFdtpIs620GTfecQ9-18" value="" style="group" vertex="1" connectable="0" parent="1">
          <mxGeometry x="280" y="520" width="200" height="80" as="geometry" />
        </mxCell>
        <mxCell id="tFFFFdtpIs620GTfecQ9-19" value="Fulfilment Service" style="rounded=1;whiteSpace=wrap;html=1;verticalAlign=top;" vertex="1" parent="tFFFFdtpIs620GTfecQ9-18">
          <mxGeometry width="200" height="80" as="geometry" />
        </mxCell>
        <mxCell id="tFFFFdtpIs620GTfecQ9-20" value="" style="shape=hexagon;perimeter=hexagonPerimeter2;whiteSpace=wrap;html=1;fixedSize=1;size=20;" vertex="1" parent="tFFFFdtpIs620GTfecQ9-18">
          <mxGeometry x="10" y="30" width="70" height="40" as="geometry" />
        </mxCell>
        <mxCell id="tFFFFdtpIs620GTfecQ9-21" value="" style="shape=cylinder3;whiteSpace=wrap;html=1;boundedLbl=1;backgroundOutline=1;size=15;" vertex="1" parent="tFFFFdtpIs620GTfecQ9-18">
          <mxGeometry x="90" y="20" width="40" height="50" as="geometry" />
        </mxCell>
        <mxCell id="tFFFFdtpIs620GTfecQ9-22" value="Actor" style="shape=umlActor;verticalLabelPosition=bottom;verticalAlign=top;html=1;outlineConnect=0;" vertex="1" parent="1">
          <mxGeometry x="40" y="40" width="30" height="60" as="geometry" />
        </mxCell>
      </root>
    </mxGraphModel>
  </diagram>
</mxfile>
